<?xml version="1.0" encoding="iso-8859-1"?>
<!-- Uploaded to: SVG Repo, www.svgrepo.com, Generator: SVG Repo Mixer Tools -->
<svg height="50px" width="50px" version="1.1" id="Layer_1" xmlns="http://www.w3.org/2000/svg" xmlns:xlink="http://www.w3.org/1999/xlink" 
	 viewBox="0 0 512 512" xml:space="preserve">
<g transform="translate(1 1)">
	<g>
		<path style="fill:#FFE100;" d="M477.293,144.067c6.827-6.827,6.827-18.773,0-25.6l16.213,16.213c6.827,6.827,6.827,18.773,0,25.6
			s-18.773,6.827-25.6,0l-16.213-16.213C458.52,150.893,470.467,150.893,477.293,144.067"/>
		<path style="fill:#FFE100;" d="M464.493,144.067l-25.6,25.6c-3.413-5.12-7.68-10.24-11.947-14.507l23.893-23.893"/>
		<path style="fill:#FFE100;" d="M276.76,75.8c-4.267,0-8.533,0-12.8,0c111.787,6.827,200.533,99.84,200.533,213.333
			S375.747,495.64,263.96,502.467c4.267,0,8.533,0,12.8,0c117.76,0,213.333-95.573,213.333-213.333S394.52,75.8,276.76,75.8"/>
	</g>
	<path style="fill:#FDCC00;" d="M438.893,289.133c0-117.76-95.573-213.333-213.333-213.333
		c-72.533,0-187.733,95.573-187.733,213.333s115.2,213.333,187.733,213.333C343.32,502.467,438.893,406.893,438.893,289.133"/>
	<g>
		<path style="fill:#FFE100;" d="M251.16,468.333c-98.987,0-179.2-80.213-179.2-179.2s80.213-179.2,179.2-179.2
			s179.2,80.213,179.2,179.2S350.147,468.333,251.16,468.333"/>
		<path style="fill:#FFE100;" d="M275.907,41.667H199.96c-4.267,0-8.533-4.267-8.533-9.387V16.92c0-5.12,4.267-9.387,8.533-9.387
			h75.947c5.12,0,9.387,4.267,9.387,9.387v16.213C285.293,37.4,281.027,41.667,275.907,41.667"/>
	</g>
	<path style="fill:#FFA800;" d="M301.507,7.533h-25.6c5.12,0,9.387,4.267,9.387,9.387v16.213c0,4.267-4.267,8.533-9.387,8.533h25.6
		c5.12,0,9.387-4.267,9.387-9.387V16.92C310.893,11.8,306.627,7.533,301.507,7.533"/>
	<path style="fill:#FFE100;" d="M251.16,75.8c8.533,0,0,0.853,8.533,1.707v-35.84H225.56v35.84
		C234.093,76.653,242.627,75.8,251.16,75.8"/>
	<path style="fill:#FFA800;" d="M259.693,41.667V75.8c5.973,0,11.093,0.853,17.067,1.707v-35.84H259.693z"/>
	<path style="fill:#FFE100;" d="M66.84,123.587L89.027,101.4c6.827-6.827,6.827-18.773,0-25.6s-18.773-6.827-25.6,0L41.24,97.987
		c-6.827,6.827-6.827,18.773,0,25.6S59.16,130.413,66.84,123.587"/>
	<path style="fill:#FFFFFF;" d="M42.093,122.733c-6.827-6.827-6.827-18.773,0-25.6L25.88,113.347c-6.827,6.827-6.827,18.773,0,25.6
		c6.827,6.827,18.773,6.827,25.6,0l16.213-16.213C60.867,129.56,48.92,129.56,42.093,122.733"/>
	<path style="fill:#FFE100;" d="M112.92,127l-23.893-24.747l-20.48,20.48l25.6,25.6C102.68,137.24,102.68,136.387,112.92,127"/>
	<path style="fill:#FFFFFF;" d="M54.893,135.533l25.6,25.6c3.413-5.12,7.68-10.24,11.947-14.507l-23.893-23.893"/>
	<path style="fill:#FFE100;" d="M435.48,123.587L413.293,101.4c-6.827-6.827-6.827-18.773,0-25.6s18.773-6.827,25.6,0l22.187,22.187
		c6.827,6.827,6.827,18.773,0,25.6C454.253,130.413,442.307,130.413,435.48,123.587"/>
	<path style="fill:#FFA800;" d="M460.227,122.733c6.827-6.827,6.827-18.773,0-25.6l16.213,16.213c6.827,6.827,6.827,18.773,0,25.6
		c-6.827,6.827-18.773,6.827-25.6,0l-16.213-16.213C441.453,129.56,453.4,129.56,460.227,122.733"/>
	<path style="fill:#FFE100;" d="M388.547,127l24.747-24.747l20.48,20.48l-25.6,25.6C398.787,137.24,399.64,136.387,388.547,127"/>
	<g>
		<path style="fill:#FFA800;" d="M447.427,135.533l-25.6,25.6c-3.413-5.12-7.68-10.24-11.947-14.507l23.893-23.893"/>
		<path style="fill:#FFA800;" d="M251.16,75.8c-4.267,0-8.533,0-12.8,0c111.787,6.827,200.533,99.84,200.533,213.333
			S350.147,495.64,238.36,502.467c4.267,0,8.533,0,12.8,0c117.76,0,213.333-95.573,213.333-213.333S368.92,75.8,251.16,75.8"/>
		<path style="fill:#FFA800;" d="M251.16,109.933c-4.267,0-8.533,0-12.8,0.853c93.013,6.827,166.4,83.627,166.4,178.347
			s-73.387,171.52-166.4,178.347c4.267,0,8.533,0.853,12.8,0.853c98.987,0,179.2-80.213,179.2-179.2S350.147,109.933,251.16,109.933
			"/>
	</g>
	<path style="fill:#FFE100;" d="M276.76,289.133c0-14.507-11.093-25.6-25.6-25.6c-14.507,0-25.6,11.093-25.6,25.6
		c0,13.653,11.093,25.6,25.6,25.6C265.667,314.733,276.76,302.787,276.76,289.133"/>
	<path d="M251.16,511c-56.32,0-110.08-21.333-151.04-58.88c-3.413-3.413-3.413-8.533-0.853-11.947
		c3.413-3.413,8.533-3.413,11.947-0.853c38.4,34.987,87.893,54.613,139.947,54.613c112.64,0,204.8-92.16,204.8-204.8
		s-92.16-204.8-204.8-204.8s-204.8,92.16-204.8,204.8c0,37.547,10.24,74.24,29.867,106.667c2.56,4.267,0.853,9.387-2.56,11.947
		c-4.267,2.56-9.387,0.853-11.947-2.56C40.387,370.2,29.293,330.093,29.293,289.133c0-122.027,99.84-221.867,221.867-221.867
		s221.867,99.84,221.867,221.867S373.187,511,251.16,511z"/>
	<path d="M94.147,423.107c0-5.12-3.413-8.533-8.533-8.533s-8.533,3.413-8.533,8.533s3.413,8.533,8.533,8.533
		S94.147,427.373,94.147,423.107"/>
	<path d="M251.16,476.867c-103.253,0-187.733-84.48-187.733-187.733S147.907,101.4,251.16,101.4s187.733,84.48,187.733,187.733
		S354.413,476.867,251.16,476.867z M251.16,118.467c-93.867,0-170.667,76.8-170.667,170.667S157.293,459.8,251.16,459.8
		S421.827,383,421.827,289.133S345.027,118.467,251.16,118.467z"/>
	<path d="M301.507,50.2H199.96c-9.387,0-17.067-7.68-17.067-17.92V16.92c0-10.24,7.68-17.92,17.067-17.92h101.547
		c10.24,0,17.92,7.68,17.92,17.92v16.213C319.427,42.52,311.747,50.2,301.507,50.2z M199.96,16.067V32.28l101.547,0.853
		c0.853,0,0.853,0,0.853-0.853V16.92L199.96,16.067z"/>
	<path d="M464.493,153.453c-6.827,0-13.653-2.56-18.773-7.68l-34.133-34.133c-10.24-10.24-10.24-27.307,0-37.547
		c10.24-10.24,27.307-10.24,37.547,0l34.133,34.133c10.24,10.24,10.24,27.307,0,37.547
		C478.147,150.893,471.32,153.453,464.493,153.453z M430.36,83.48c-2.56,0-5.12,0.853-6.827,2.56c-3.413,3.413-3.413,9.387,0,13.653
		l34.133,34.133c3.413,3.413,9.387,3.413,13.653,0s3.413-9.387,0-13.653L437.187,86.04C435.48,84.333,432.92,83.48,430.36,83.48z"/>
	<path d="M37.827,153.453c-6.827,0-13.653-2.56-18.773-7.68c-10.24-10.24-10.24-27.307,0-37.547l34.133-34.133
		c10.24-10.24,27.307-10.24,37.547,0s10.24,27.307,0,37.547L56.6,145.773C51.48,150.893,44.653,153.453,37.827,153.453z
		 M71.96,83.48c-2.56,0-5.12,0.853-6.827,2.56L31,120.173c-3.413,3.413-3.413,9.387,0,13.653c3.413,3.413,10.24,3.413,13.653,0l0,0
		l34.133-34.133c3.413-3.413,3.413-9.387,0-13.653C77.08,84.333,74.52,83.48,71.96,83.48z"/>
	<path d="M80.493,169.667c-2.56,0-4.267-0.853-5.973-2.56l-25.6-25.6c-3.413-3.413-3.413-8.533,0-11.947l29.867-29.867
		c3.413-3.413,8.533-3.413,11.947,0l24.747,24.747c1.707,1.707,2.56,4.267,2.56,5.973s-0.853,4.267-2.56,5.973
		c-10.24,9.387-19.627,18.773-27.307,29.867C85.613,167.96,83.053,169.667,80.493,169.667L80.493,169.667z M66.84,135.533l12.8,12.8
		c5.12-6.827,11.093-12.8,17.067-18.773L84.76,117.613L66.84,135.533z"/>
	<path d="M276.76,86.04h-0.853c-17.067-1.707-32.427-1.707-49.493,0c-2.56,0-5.12-0.853-6.827-1.707
		c-1.707-2.56-2.56-4.267-2.56-6.827v-35.84c0-5.12,3.413-8.533,8.533-8.533h51.2c5.12,0,8.533,3.413,8.533,8.533v35.84
		c0,2.56-0.853,5.12-2.56,5.973C281.027,85.187,278.467,86.04,276.76,86.04z M234.093,50.2v17.92
		c11.947-0.853,22.187-0.853,34.133,0V50.2H234.093z"/>
	<path d="M421.827,169.667C421.827,169.667,420.973,169.667,421.827,169.667c-3.413,0-5.12-1.707-6.827-3.413
		c-7.68-11.093-17.067-20.48-27.307-29.867c-1.707-1.707-2.56-3.413-2.56-5.973c0-2.56,0.853-4.267,2.56-5.973l24.747-24.747
		c3.413-3.413,8.533-3.413,11.947,0l29.867,29.867c3.413,3.413,3.413,8.533,0,11.947l-25.6,25.6
		C426.093,168.813,424.387,169.667,421.827,169.667z M405.613,129.56c5.973,5.973,11.947,11.947,17.067,18.773l12.8-12.8
		l-17.92-17.92L405.613,129.56z"/>
	<path d="M251.16,323.267c-18.773,0-34.133-15.36-34.133-34.133c0-18.773,15.36-34.133,34.133-34.133s34.133,15.36,34.133,34.133
		C285.293,307.907,269.933,323.267,251.16,323.267z M251.16,272.067c-9.387,0-17.067,7.68-17.067,17.067
		c0,9.387,7.68,17.067,17.067,17.067c9.387,0,17.067-7.68,17.067-17.067C268.227,279.747,260.547,272.067,251.16,272.067z"/>
	<path d="M106.093,297.667H71.96c-5.12,0-8.533-3.413-8.533-8.533c0-5.12,3.413-8.533,8.533-8.533h34.133
		c5.12,0,8.533,3.413,8.533,8.533C114.627,294.253,110.36,297.667,106.093,297.667z"/>
	<path d="M430.36,297.667h-34.133c-5.12,0-8.533-3.413-8.533-8.533c0-5.12,3.413-8.533,8.533-8.533h34.133
		c5.12,0,8.533,3.413,8.533,8.533C438.893,294.253,434.627,297.667,430.36,297.667z"/>
	<path d="M251.16,152.6c-5.12,0-8.533-3.413-8.533-8.533v-34.133c0-5.12,3.413-8.533,8.533-8.533s8.533,3.413,8.533,8.533v34.133
		C259.693,149.187,255.427,152.6,251.16,152.6z"/>
	<path d="M251.16,476.867c-5.12,0-8.533-3.413-8.533-8.533V434.2c0-5.12,3.413-8.533,8.533-8.533s8.533,3.413,8.533,8.533v34.133
		C259.693,473.453,255.427,476.867,251.16,476.867z"/>
	<path d="M148.76,195.267c-2.56,0-4.267-0.853-5.973-2.56l-23.893-23.893c-3.413-3.413-3.413-8.533,0-11.947s8.533-3.413,11.947,0
		l23.893,23.893c3.413,3.413,3.413,8.533,0,11.947C153.027,194.413,150.467,195.267,148.76,195.267z"/>
	<path d="M377.453,423.96c-2.56,0-4.267-0.853-5.973-2.56l-23.893-23.893c-3.413-3.413-3.413-8.533,0-11.947
		c3.413-3.413,8.533-3.413,11.947,0l23.893,23.893c3.413,3.413,3.413,8.533,0,11.947C382.573,423.96,380.013,423.96,377.453,423.96z
		"/>
	<path d="M353.56,195.267c-2.56,0-4.267-0.853-5.973-2.56c-3.413-3.413-3.413-8.533,0-11.947l23.893-23.893
		c3.413-3.413,8.533-3.413,11.947,0c3.413,3.413,3.413,8.533,0,11.947l-23.893,23.893
		C357.827,194.413,356.12,195.267,353.56,195.267z"/>
	<path d="M124.013,423.96c-2.56,0-4.267-0.853-5.973-2.56c-3.413-3.413-3.413-8.533,0-11.947l23.893-23.893
		c3.413-3.413,8.533-3.413,11.947,0c3.413,3.413,3.413,8.533,0,11.947L129.987,421.4C129.133,423.96,126.573,423.96,124.013,423.96z
		"/>
	<path d="M251.16,272.067c-5.12,0-8.533-3.413-8.533-8.533V178.2c0-5.12,3.413-8.533,8.533-8.533s8.533,3.413,8.533,8.533v85.333
		C259.693,268.653,255.427,272.067,251.16,272.067z"/>
</g>
</svg>